<?xml version="1.0" encoding="utf-8"?>
<!-- Generator: Adobe Illustrator 16.0.0, SVG Export Plug-In . SVG Version: 6.00 Build 0)  -->
<!DOCTYPE svg PUBLIC "-//W3C//DTD SVG 1.1//EN" "http://www.w3.org/Graphics/SVG/1.1/DTD/svg11.dtd">
<svg version="1.1" id="Ebene_1" xmlns="http://www.w3.org/2000/svg" xmlns:xlink="http://www.w3.org/1999/xlink" x="0px" y="0px"
	 width="1495.789px" height="267.475px" viewBox="0 0 1495.789 267.475" enable-background="new 0 0 1495.789 267.475"
	 xml:space="preserve">
<g id="Kreise_x5F_cyan">
	<circle fill="#009EE0" stroke="#009EE0" stroke-width="2" cx="409.425" cy="132.896" r="105.255"/>
</g>
<g id="Schrift">
	<path d="M724.205,49.294h14.001v28.202h28.001V49.294h14.001v69.805h-14.001V88.496h-28.001v30.603h-14.001V49.294z"/>
	<path d="M818.805,66.395c15.302,0,27.001,10.3,27.001,27.302c0,14.801-9.899,26.602-27.001,26.602
		c-17.001,0-26.901-11.801-26.901-26.602C791.903,76.695,803.604,66.395,818.805,66.395z M818.805,109.897
		c10.302,0,13-9.2,13-17.801c0-7.901-4.199-15.302-13-15.302c-8.701,0-12.9,7.602-12.9,15.302
		C805.904,100.597,808.604,109.897,818.805,109.897z"/>
	<path d="M889.704,78.696c-2.4-1.1-5-1.9-9.102-1.9c-8.3,0-13.601,6.602-13.601,16.302c0,9.5,4.5,16.801,13.901,16.801
		c3.8,0,8-1.4,10.301-2.4l0.6,11.102c-3.899,1.199-7.9,1.699-13.4,1.699c-16.901,0-25.402-11.501-25.402-27.201
		c0-14.901,8.801-26.702,24.902-26.702c5.399,0,9.3,0.6,13,1.7L889.704,78.696z"/>
	<path d="M900.701,44.094h13.4v30.502h0.2c3.4-5,9.2-8.2,16.201-8.2c12.201,0,17.501,8.601,17.501,20.201v32.502h-13.401V91.597
		c0-6.302-0.1-14.802-8.699-14.802c-9.701,0-11.802,10.501-11.802,17.102v25.202h-13.4V44.094L900.701,44.094z"/>
	<path d="M992.401,78.396c-4.101-1.4-7.102-2.2-12-2.2c-3.601,0-7.9,1.3-7.9,5.701c0,8.2,23.301,3,23.301,21.601
		c0,12.001-10.7,16.801-21.601,16.801c-5.102,0-10.301-0.899-15.201-2.199l0.8-11c4.2,2.1,8.602,3.399,13.201,3.399
		c3.4,0,8.8-1.3,8.8-6.3c0-10.101-23.301-3.2-23.301-21.801c0-11.102,9.701-16.001,20.201-16.001c6.3,0,10.4,1,14.601,1.899
		L992.401,78.396z"/>
	<path d="M1039.601,78.696c-2.399-1.1-5.001-1.9-9.101-1.9c-8.301,0-13.602,6.602-13.602,16.302c0,9.5,4.501,16.801,13.9,16.801
		c3.8,0,8-1.4,10.301-2.4l0.601,11.102c-3.9,1.199-7.9,1.699-13.4,1.699c-16.901,0-25.401-11.501-25.401-27.201
		c0-14.901,8.801-26.702,24.901-26.702c5.4,0,9.301,0.6,13.001,1.7L1039.601,78.696z"/>
	<path d="M1050.597,44.094h13.4v30.502h0.2c3.399-5,9.201-8.2,16.201-8.2c12.201,0,17.501,8.601,17.501,20.201v32.502h-13.4V91.597
		c0-6.302-0.101-14.802-8.701-14.802c-9.7,0-11.801,10.501-11.801,17.102v25.202h-13.4V44.094L1050.597,44.094z"/>
	<path d="M1158.999,119.098h-12.7v-7h-0.199c-4.102,5-9.9,8.2-16.901,8.2c-12.2,0-17.501-8.601-17.501-20.2V67.595h13.4v27.501
		c0,6.3,0.101,14.801,8.7,14.801c9.7,0,11.802-10.5,11.802-17.102v-25.2h13.399V119.098L1158.999,119.098z"/>
	<path d="M1173.095,44.094h13.401v75.005h-13.401V44.094z"/>
	<path d="M1241.898,116.198c-4.9,2.7-10.502,4.101-17.701,4.101c-17.001,0-26.901-9.801-26.901-26.701
		c0-14.901,7.9-27.202,23.901-27.202c19.101,0,24.501,13.101,24.501,31.102h-35.603c0.6,8.3,6.4,13,14.7,13
		c6.501,0,12.102-2.399,17.102-5.2L1241.898,116.198L1241.898,116.198z M1232.896,88.296c-0.398-6.5-3.399-12.101-10.899-12.101
		c-7.501,0-11.301,5.201-11.9,12.101H1232.896z"/>
	<path d="M724.205,169.294h24.401c9,0,22.501,2.601,22.501,17.901c0,8.301-5.602,14.101-13.901,15.601v0.2
		c9.5,0.9,16.001,7.3,16.001,15.9c0,17.602-15.801,20.201-24.602,20.201h-24.401L724.205,169.294L724.205,169.294z M738.206,197.496
		h5.7c5.899,0,13.201-1.3,13.201-8.5c0-8.101-7.102-8.701-13.501-8.701h-5.4V197.496z M738.206,228.098h6.6
		c6.5,0,14.401-1.601,14.401-9.701c0-9.101-7.4-10.5-14.401-10.5h-6.6V228.098z"/>
	<path d="M807.705,186.395c15.301,0,27.001,10.3,27.001,27.302c0,14.801-9.9,26.602-27.001,26.602
		c-17.001,0-26.902-11.801-26.902-26.602C780.803,196.695,792.504,186.395,807.705,186.395z M807.705,229.897
		c10.301,0,13-9.2,13-17.801c0-7.901-4.2-15.302-13-15.302c-8.701,0-12.901,7.602-12.901,15.302
		C794.804,220.598,797.504,229.897,807.705,229.897z"/>
	<path d="M845.203,187.595h12.701v7h0.199c4.2-5.9,9.9-8.2,16.901-8.2c12.201,0,17.501,8.601,17.501,20.201v32.501h-13.4v-27.501
		c0-6.302-0.1-14.802-8.7-14.802c-9.701,0-11.802,10.501-11.802,17.102v25.201h-13.4V187.595L845.203,187.595z"/>
	<path d="M906.302,187.595h12.701v7h0.2c4.2-5.9,9.9-8.2,16.9-8.2c12.201,0,17.502,8.601,17.502,20.201v32.501h-13.401v-27.501
		c0-6.302-0.101-14.802-8.7-14.802c-9.701,0-11.801,10.501-11.801,17.102v25.201h-13.401V187.595L906.302,187.595z"/>
	<path d="M964.001,217.697v-11.001h26.302v11.001H964.001z"/>
	<path d="M1000.7,169.294h15.101c15.001,0,32.902-0.5,32.902,18.901c0,8.201-5.5,15.001-14.4,16.201v0.2c3.801,0.3,6,4.1,7.4,7.199
		l11.2,27.302h-15.602l-8.399-21.802c-2.001-5.199-3.802-7.2-9.701-7.2h-4.5v29.001H1000.7V169.294z M1014.701,199.096h4.601
		c6.9,0,14.802-1,14.802-9.701c0-8.4-7.802-9.102-14.802-9.102h-4.601V199.096z"/>
	<path d="M1061.8,164.094h13.4v30.502h0.2c3.399-5,9.201-8.2,16.201-8.2c12.2,0,17.5,8.601,17.5,20.201v32.501h-13.399v-27.501
		c0-6.302-0.101-14.802-8.701-14.802c-9.7,0-11.801,10.501-11.801,17.102v25.201h-13.4V164.094L1061.8,164.094z"/>
	<path d="M1164.202,236.197c-4.9,2.701-10.501,4.102-17.701,4.102c-17.001,0-26.901-9.801-26.901-26.701
		c0-14.901,7.9-27.202,23.901-27.202c19.101,0,24.501,13.101,24.501,31.102H1132.4c0.6,8.3,6.399,13.001,14.699,13.001
		c6.501,0,12.102-2.399,17.103-5.201V236.197z M1155.201,208.296c-0.399-6.5-3.4-12.101-10.9-12.101s-11.301,5.201-11.899,12.101
		H1155.201z"/>
	<path d="M1178.799,165.394h13.401v12.801h-13.401V165.394z M1178.799,187.595h13.401v51.502h-13.401V187.595z"/>
	<path d="M1206.299,187.595H1219v7h0.199c4.201-5.9,9.9-8.2,16.9-8.2c12.201,0,17.501,8.601,17.501,20.201v32.501h-13.399v-27.501
		c0-6.302-0.102-14.802-8.701-14.802c-9.7,0-11.801,10.501-11.801,17.102v25.201h-13.4V187.595L1206.299,187.595z"/>
	<path d="M1263.998,217.697v-11.001h26.302v11.001H1263.998z"/>
	<path d="M1339.399,182.095c-4.4-1.9-9.302-3-14.2-3c-4.801,0-11.001,2.1-11.001,9.699c0,12.102,30.602,7,30.602,30.402
		c0,15.301-12.101,21.102-26.2,21.102c-7.602,0-11.002-1-17.901-2.7l1.3-12.602c4.801,2.602,10.301,4.3,15.802,4.3
		c5.301,0,12.4-2.698,12.4-9c0-13.301-30.603-7.8-30.603-30.901c0-15.602,12.102-21.302,24.401-21.302c6,0,11.601,0.801,16.701,2.5
		L1339.399,182.095z"/>
	<path d="M1356.598,165.394h13.401v12.801h-13.401V165.394z M1356.598,187.595h13.401v51.502h-13.401V187.595z"/>
	<path d="M1425.4,236.197c-4.9,2.701-10.501,4.102-17.701,4.102c-17.001,0-26.901-9.801-26.901-26.701
		c0-14.901,7.9-27.202,23.901-27.202c19.101,0,24.501,13.101,24.501,31.102h-35.603c0.601,8.3,6.4,13.001,14.7,13.001
		c6.501,0,12.103-2.399,17.103-5.201V236.197L1425.4,236.197z M1416.399,208.296c-0.399-6.5-3.4-12.101-10.9-12.101
		c-7.501,0-11.301,5.201-11.9,12.101H1416.399z"/>
	<path d="M1487,187.595v46.502c0,14.001-5.601,27.2-27.201,27.2c-5.301,0-11.4-0.799-17.802-3.5l1.101-11.399
		c4.101,2.2,10.801,4.5,15.001,4.5c14.802,0,15.501-11.101,15.501-20.001h-0.199c-2.5,4.399-8.502,8.2-16.002,8.2
		c-15.2,0-21-12.2-21-26.001c0-12.401,6.399-26.702,21.801-26.702c6.801,0,12.101,2.3,15.801,8.2h0.2v-7L1487,187.595L1487,187.595z
		 M1473.6,212.796c0-8.8-3.399-16.001-11.201-16.001c-9.101,0-12,8.401-12,16.302c0,7.001,3.7,15.601,11.4,15.601
		C1470.199,228.697,1473.6,221.396,1473.6,212.796z"/>
</g>
<g id="Kreis_innen_weis">
	<path fill="#009EE0" d="M116.5,27.641c-58.13,0-105.254,47.124-105.254,105.255c0,58.13,47.124,105.254,105.254,105.254
		c58.131,0,105.255-47.124,105.255-105.254C221.755,74.764,174.631,27.641,116.5,27.641z M116.89,194.212
		c-34.305,0-62.115-27.81-62.115-62.114c0-34.306,27.81-62.115,62.115-62.115c34.305,0,62.115,27.81,62.115,62.115
		S151.195,194.212,116.89,194.212z"/>
	<circle fill="none" cx="116.89" cy="132.097" r="62.115"/>
</g>
</svg>
