<?xml version="1.0" encoding="UTF-8" standalone="no"?>
<!-- Created with Inkscape (http://www.inkscape.org/) -->

<svg
   xmlns:dc="http://purl.org/dc/elements/1.1/"
   xmlns:cc="http://creativecommons.org/ns#"
   xmlns:rdf="http://www.w3.org/1999/02/22-rdf-syntax-ns#"
   xmlns:svg="http://www.w3.org/2000/svg"
   xmlns="http://www.w3.org/2000/svg"
   xmlns:sodipodi="http://sodipodi.sourceforge.net/DTD/sodipodi-0.dtd"
   xmlns:inkscape="http://www.inkscape.org/namespaces/inkscape"
   width="210mm"
   height="297mm"
   viewBox="0 0 210 297"
   version="1.1"
   id="svg6681"
   inkscape:version="0.92.2 (5c3e80d, 2017-08-06)"
   sodipodi:docname="logoColor.svg">
  <defs
     id="defs6675" />
  <sodipodi:namedview
     id="base"
     pagecolor="#ffffff"
     bordercolor="#666666"
     borderopacity="1.0"
     inkscape:pageopacity="0.0"
     inkscape:pageshadow="2"
     inkscape:zoom="0.7"
     inkscape:cx="475.00663"
     inkscape:cy="742.27763"
     inkscape:document-units="mm"
     inkscape:current-layer="layer1"
     showgrid="false"
     inkscape:window-width="1366"
     inkscape:window-height="703"
     inkscape:window-x="0"
     inkscape:window-y="0"
     inkscape:window-maximized="1" />
  <metadata
     id="metadata6678">
    <rdf:RDF>
      <cc:Work
         rdf:about="">
        <dc:format>image/svg+xml</dc:format>
        <dc:type
           rdf:resource="http://purl.org/dc/dcmitype/StillImage" />
        <dc:title />
      </cc:Work>
    </rdf:RDF>
  </metadata>
  <g
     inkscape:label="Layer 1"
     inkscape:groupmode="layer"
     id="layer1">
    <circle
       id="path35"
       cx="103.14774"
       cy="109.40291"
       style="fill:#00b8e0;stroke-width:0.23505804;fill-opacity:1"
       r="90.703781" />
    <text
       xml:space="preserve"
       style="font-style:normal;font-variant:normal;font-weight:normal;font-stretch:normal;font-size:5.03846073px;line-height:1.25;font-family:sans-serif;-inkscape-font-specification:sans-serif;letter-spacing:0px;word-spacing:0px;fill:#000000;fill-opacity:1;stroke:none;stroke-width:0.18894227"
       x="77.55645"
       y="62.877903"
       id="text7276"><tspan
         sodipodi:role="line"
         id="tspan7274"
         x="77.55645"
         y="67.335754"
         style="stroke-width:0.18894227" /></text>
    <flowRoot
       xml:space="preserve"
       id="flowRoot21"
       style="font-style:normal;font-variant:normal;font-weight:normal;font-stretch:normal;font-size:40px;line-height:1.25;font-family:sans-serif;-inkscape-font-specification:sans-serif;letter-spacing:0px;word-spacing:0px;fill:#000000;fill-opacity:1;stroke:none"
       transform="matrix(0.18894228,0,0,0.18894228,39.193487,15.689967)"><flowRegion
         id="flowRegion23"
         style="font-style:normal;font-variant:normal;font-weight:normal;font-stretch:normal;font-family:sans-serif;-inkscape-font-specification:sans-serif"><rect
           id="rect25"
           width="264.65997"
           height="221.2234"
           x="197.9899"
           y="256.81897"
           style="font-style:normal;font-variant:normal;font-weight:normal;font-stretch:normal;font-family:sans-serif;-inkscape-font-specification:sans-serif;fill:#ffffff;fill-opacity:1" /></flowRegion><flowPara
         id="flowPara27" /></flowRoot>    <text
       xml:space="preserve"
       style="font-style:normal;font-variant:normal;font-weight:normal;font-stretch:normal;font-size:7.5576911px;line-height:1.25;font-family:sans-serif;-inkscape-font-specification:sans-serif;letter-spacing:0px;word-spacing:0px;fill:#000000;fill-opacity:1;stroke:none;stroke-width:0.18894227"
       x="77.55645"
       y="67.458549"
       id="text31"><tspan
         sodipodi:role="line"
         id="tspan29"
         x="77.55645"
         y="74.145332"
         style="font-style:normal;font-variant:normal;font-weight:normal;font-stretch:normal;font-family:sans-serif;-inkscape-font-specification:sans-serif;fill:#000000;stroke-width:0.18894227" /></text>
    <path
       style="fill:#0089a6;fill-opacity:1;stroke:#0089a6;stroke-width:0.71399999;stroke-miterlimit:4;stroke-dasharray:none;stroke-opacity:1"
       d="M 87.052579,183.29846 68.751487,164.893 l 32.943093,1.01879 c 29.72379,0.91923 30.53363,0.17251 31.93889,-0.52524 0.80604,-0.40022 1.58517,-1.21588 2.14379,-2.06001 l 0.94819,-1.46729 0.80975,-52.20411 -1.64832,-54.42314 29.60939,29.773281 27.96107,27.959129 -0.002,2.10043 c -0.003,3.16812 -1.33854,11.60705 -2.66569,16.83945 -1.56256,6.16047 -3.31539,10.84908 -6.47717,17.32556 -4.59651,9.41538 -9.49229,16.20777 -17.35758,24.08184 -7.83805,7.84679 -14.82053,12.84407 -24.58831,17.59753 -10.84359,5.27707 -25.50468,8.89867 -36.02377,8.89867 h -2.78408 z"
       id="path56"
       inkscape:connector-curvature="0"
       sodipodi:nodetypes="ccscccccccccsscscc" />
    <rect
       style="opacity:1;fill:#000080;fill-opacity:1;stroke-width:1.52219582;stroke-miterlimit:4;stroke-dasharray:none"
       id="rect5229"
       width="71.411255"
       height="114.25801"
       x="66.108727"
       y="52.428509"
       ry="6.7138419" />
    <text
       xml:space="preserve"
       style="font-style:normal;font-variant:normal;font-weight:normal;font-stretch:normal;font-size:7.05384445px;line-height:1.25;font-family:sans-serif;-inkscape-font-specification:sans-serif;letter-spacing:0px;word-spacing:0px;fill:#000000;fill-opacity:1;stroke:none;stroke-width:0.18894227"
       x="85.572594"
       y="120.32692"
       id="text1171"><tspan
         sodipodi:role="line"
         id="tspan1169"
         x="85.572594"
         y="126.56792"
         style="stroke-width:0.18894227" /></text>
    <path
       style="fill:#ffffff;fill-opacity:1;stroke:#fffff8;stroke-width:1.36829054;stroke-miterlimit:4;stroke-dasharray:none;stroke-opacity:1"
       d="m 97.491243,124.06352 c 1.89e-4,-0.29691 0.01211,-0.40998 0.02636,-0.25126 0.01425,0.15871 0.01406,0.40164 -3.78e-4,0.53983 -0.01451,0.1382 -0.02616,0.008 -0.02592,-0.28857 z"
       id="path1215"
       inkscape:connector-curvature="0" />
    <path
       style="fill:#ffffff;fill-opacity:1;stroke:#fffff8;stroke-width:0.24188188;stroke-miterlimit:4;stroke-dasharray:none;stroke-opacity:1"
       d="m 97.078673,123.97297 v -0.09 l 0.04349,0.008 c 0.02392,0.004 0.113832,0.0196 0.199807,0.0336 l 0.156317,0.0255 0.0036,0.0564 0.0036,0.0564 H 97.282043 97.0786 Z"
       id="path1219"
       inkscape:connector-curvature="0" />
    <path
       style="fill:#ffffff;fill-opacity:1;stroke:#fdffff;stroke-width:2.73658109;stroke-miterlimit:4;stroke-dasharray:none;stroke-opacity:1"
       d="m 91.402733,125.7068 c 0.03585,-0.0928 1.408801,-2.35142 3.051012,-5.01918 l 2.985838,-4.85049 v 3.60212 c 0,2.12671 -0.05133,3.60211 -0.125318,3.60211 -0.317933,0 -0.549476,0.4558 -0.549476,1.08166 0,0.52762 0.05998,0.70035 0.303658,0.87439 l 0.303657,0.21688 -0.378663,0.3306 c -0.374132,0.32665 -0.410234,0.33061 -3.017272,0.33061 -2.055673,0 -2.62421,-0.0373 -2.573436,-0.1687 z"
       id="path1266"
       inkscape:connector-curvature="0" />
    <g
       id="g883"
       transform="matrix(0.71411255,0,0,0.71411255,39.193487,15.689967)">
      <rect
         ry="7.6388493"
         y="61.446426"
         x="47.690475"
         height="130"
         width="80"
         id="rect5229-4"
         style="opacity:1;fill:#ffffff;fill-opacity:1;stroke-width:1.71854377;stroke-miterlimit:4;stroke-dasharray:none" />
    </g>
    <rect
       style="opacity:1;fill:#000080;fill-opacity:1;stroke:#000080;stroke-width:0.44232354;stroke-miterlimit:4;stroke-dasharray:none;stroke-opacity:1"
       id="rect5962-36"
       width="18.601187"
       height="11.313416"
       x="78.690834"
       y="126.98274"
       ry="1.1037467" />
    <path
       style="fill:#ffffff;fill-opacity:1;stroke:#ffffff;stroke-width:5.47316217;stroke-miterlimit:4;stroke-dasharray:none;stroke-opacity:1"
       d="m 85.111853,136.00296 c 0.342437,-0.56942 1.897972,-3.119 3.456746,-5.66573 l 2.834135,-4.63043 4.241704,-0.003 c 3.918828,-0.002 4.262975,0.0372 4.521122,0.51956 0.36932,0.69007 0.36932,9.60227 0,10.29235 -0.266225,0.49745 -0.642883,0.52209 -7.977868,0.52209 h -7.698453 z"
       id="path1295"
       inkscape:connector-curvature="0" />
    <rect
       style="opacity:1;fill:#000080;fill-opacity:1;stroke:#000080;stroke-width:0.68911862;stroke-miterlimit:4;stroke-dasharray:none;stroke-opacity:1"
       id="rect5962-3"
       width="46.155899"
       height="11.06662"
       x="78.814232"
       y="98.541634"
       ry="1.0796691" />
    <path
       style="fill:#ffffff;fill-opacity:1;stroke:#ffffff;stroke-width:5.47316217;stroke-miterlimit:4;stroke-dasharray:none;stroke-opacity:1"
       d="m 103.56149,107.80117 c 1.20872,-1.96702 2.76127,-4.48737 3.45011,-5.60079 l 1.25245,-2.02438 9.1417,-0.0711 c 8.21998,-0.064 9.19188,-0.0257 9.63934,0.37923 0.44726,0.40477 0.49763,0.92598 0.49763,5.14982 0,2.72328 -0.11749,4.919 -0.27941,5.22155 -0.27022,0.50492 -0.7008,0.5221 -13.08945,0.5221 h -12.81004 z"
       id="path1297"
       inkscape:connector-curvature="0" />
    <rect
       style="opacity:1;fill:#000080;fill-opacity:1;stroke:#000080;stroke-width:0.68911862;stroke-miterlimit:4;stroke-dasharray:none;stroke-opacity:1"
       id="rect5962"
       width="46.155899"
       height="11.06662"
       x="78.814232"
       y="69.977142"
       ry="1.0796691" />
    <rect
       style="opacity:1;fill:#ffffff;fill-opacity:1;stroke-width:1.36295319;stroke-miterlimit:4;stroke-dasharray:none"
       id="rect5248"
       width="14.282251"
       height="5.7129006"
       x="94.673225"
       y="156.68893"
       ry="2.8564503" />
    <path
       style="fill:#ffffff;stroke:#000080;stroke-width:3.4027462;stroke-linecap:butt;stroke-linejoin:miter;stroke-miterlimit:4;stroke-dasharray:none;stroke-opacity:1"
       d="m 96.068114,130.04178 10.931656,12.41621 16.70495,-26.35649"
       id="path173"
       inkscape:connector-curvature="0"
       sodipodi:nodetypes="ccc" />
    <path
       style="fill:#ffffff;fill-opacity:1;stroke:#ffffff;stroke-width:5.47316217;stroke-miterlimit:4;stroke-dasharray:none;stroke-opacity:1"
       d="m 117.22518,84.048431 c 0.92442,-1.76314 6.90253,-11.228042 7.15606,-11.329899 0.1911,-0.07677 0.58585,0.07616 0.87724,0.339859 0.48872,0.44229 0.52978,0.852705 0.52978,5.29613 0,6.24901 0.29153,5.89635 -4.87445,5.89635 -2.08712,0 -3.74701,-0.0911 -3.68863,-0.20244 z"
       id="path1301"
       inkscape:connector-curvature="0" />
    <path
       style="fill:#0000ff;fill-opacity:1;stroke:#000080;stroke-width:2.76985025;stroke-linecap:butt;stroke-linejoin:miter;stroke-miterlimit:4;stroke-dasharray:none;stroke-opacity:1"
       d="M 73.249854,152.40427 110.35007,92.116421 130.37886,59.569631"
       id="path7264"
       inkscape:connector-curvature="0"
       sodipodi:nodetypes="ccc" />
  </g>
</svg>
