<?xml version="1.0" encoding="UTF-8" standalone="no"?>
<!-- Created with Inkscape (http://www.inkscape.org/) -->

<svg
   xmlns:dc="http://purl.org/dc/elements/1.1/"
   xmlns:cc="http://creativecommons.org/ns#"
   xmlns:rdf="http://www.w3.org/1999/02/22-rdf-syntax-ns#"
   xmlns:svg="http://www.w3.org/2000/svg"
   xmlns="http://www.w3.org/2000/svg"
   xmlns:sodipodi="http://sodipodi.sourceforge.net/DTD/sodipodi-0.dtd"
   xmlns:inkscape="http://www.inkscape.org/namespaces/inkscape"
   width="210mm"
   height="297mm"
   viewBox="0 0 210 297"
   version="1.1"
   id="svg8"
   sodipodi:docname="umdas.svg"
   inkscape:version="0.92.2 (5c3e80d, 2017-08-06)">
  <defs
     id="defs2" />
  <sodipodi:namedview
     id="base"
     pagecolor="#ffffff"
     bordercolor="#666666"
     borderopacity="1.0"
     inkscape:pageopacity="0.0"
     inkscape:pageshadow="2"
     inkscape:zoom="0.9282688"
     inkscape:cx="283.68071"
     inkscape:cy="350.77979"
     inkscape:document-units="mm"
     inkscape:current-layer="layer2"
     showgrid="false"
     showguides="true"
     inkscape:window-width="1366"
     inkscape:window-height="703"
     inkscape:window-x="0"
     inkscape:window-y="384"
     inkscape:window-maximized="1" />
  <metadata
     id="metadata5">
    <rdf:RDF>
      <cc:Work
         rdf:about="">
        <dc:format>image/svg+xml</dc:format>
        <dc:type
           rdf:resource="http://purl.org/dc/dcmitype/StillImage" />
      </cc:Work>
    </rdf:RDF>
  </metadata>
  <g
     inkscape:label="circles"
     inkscape:groupmode="layer"
     id="layer1">
    <path
       sodipodi:type="star"
       style="opacity:0.98000004;fill:#000000;fill-opacity:1;stroke:#050508;stroke-width:0.71399999;stroke-miterlimit:4;stroke-dasharray:none;stroke-opacity:1"
       id="path4763-6"
       sodipodi:sides="3"
       sodipodi:cx="102.58681"
       sodipodi:cy="221.2188"
       sodipodi:r1="35.573261"
       sodipodi:r2="17.786631"
       sodipodi:arg1="0.52195707"
       sodipodi:arg2="1.5691546"
       inkscape:flatsided="true"
       inkscape:rounded="0"
       inkscape:randomized="0"
       d="m 133.42331,238.95483 -61.614609,0.10115 30.719709,-53.4104 z"
       inkscape:transform-center-x="-0.16602425"
       inkscape:transform-center-y="-15.955701"
       transform="matrix(2.0573638,0.00352025,0.00595701,1.7951095,-126.48018,-183.30047)" />
    <path
       sodipodi:type="star"
       style="opacity:0.98000004;fill:#ffffff;fill-opacity:1;stroke:#050508;stroke-width:0.71399999;stroke-miterlimit:4;stroke-dasharray:none;stroke-opacity:1"
       id="path4763"
       sodipodi:sides="3"
       sodipodi:cx="102.58681"
       sodipodi:cy="221.2188"
       sodipodi:r1="35.573261"
       sodipodi:r2="17.786631"
       sodipodi:arg1="0.52195707"
       sodipodi:arg2="1.5691546"
       inkscape:flatsided="true"
       inkscape:rounded="0"
       inkscape:randomized="0"
       d="m 133.42331,238.95483 -61.614609,0.10115 30.719709,-53.4104 z"
       inkscape:transform-center-x="-0.12765126"
       inkscape:transform-center-y="-12.904474"
       transform="matrix(1.5818673,0.00284707,0.00458023,1.4518294,-77.55834,-107.48144)" />
    <text
       xml:space="preserve"
       style="font-style:normal;font-variant:normal;font-weight:normal;font-stretch:normal;font-size:15.94923019px;line-height:1.25;font-family:Comfortaa;-inkscape-font-specification:Comfortaa;text-align:center;letter-spacing:0px;word-spacing:0px;text-anchor:middle;fill:#000000;fill-opacity:1;stroke:none;stroke-width:0.39873075"
       x="84.063309"
       y="209.69664"
       id="text9118"
       transform="scale(1.0028992,0.99710917)"><tspan
         sodipodi:role="line"
         id="tspan9116"
         x="84.063309"
         y="209.69664"
         style="font-style:normal;font-variant:normal;font-weight:normal;font-stretch:normal;font-family:Comfortaa;-inkscape-font-specification:Comfortaa;text-align:center;text-anchor:middle;stroke-width:0.39873075">Um</tspan><tspan
         sodipodi:role="line"
         x="84.063309"
         y="229.63318"
         style="font-style:normal;font-variant:normal;font-weight:normal;font-stretch:normal;font-family:Comfortaa;-inkscape-font-specification:Comfortaa;text-align:center;text-anchor:middle;stroke-width:0.39873075"
         id="tspan9120">DaS</tspan><tspan
         sodipodi:role="line"
         x="84.063309"
         y="249.56972"
         style="font-style:normal;font-variant:normal;font-weight:normal;font-stretch:normal;font-family:Comfortaa;-inkscape-font-specification:Comfortaa;text-align:center;text-anchor:middle;stroke-width:0.39873075"
         id="tspan4796" /></text>
    <flowRoot
       xml:space="preserve"
       id="flowRoot4798"
       style="fill:black;fill-opacity:1;stroke:none;font-family:sans-serif;font-style:normal;font-weight:normal;font-size:40px;line-height:1.25;letter-spacing:0px;word-spacing:0px"><flowRegion
         id="flowRegion4800"><rect
           id="rect4802"
           width="229.4594"
           height="182.05934"
           x="18.313662"
           y="816.57379" /></flowRegion><flowPara
         id="flowPara4804"></flowPara></flowRoot>  </g>
  <g
     inkscape:groupmode="layer"
     id="layer2"
     inkscape:label="Layer 2"
     style="display:inline">
    <ellipse
       style="display:inline;opacity:0.98000004;fill:#cccccc;fill-opacity:1;stroke:#050508;stroke-width:0.81110954;stroke-miterlimit:4;stroke-dasharray:none;stroke-opacity:1"
       id="path4811-7-3"
       cx="33.91843"
       cy="240.63554"
       rx="23.098955"
       ry="22.801022" />
    <ellipse
       style="display:inline;opacity:0.98000004;fill:#cccccc;fill-opacity:1;stroke:#050508;stroke-width:0.82107192;stroke-miterlimit:4;stroke-dasharray:none;stroke-opacity:1"
       id="path4811-7-3-2"
       cx="138.38147"
       cy="239.13916"
       rx="23.382662"
       ry="23.081068" />
    <ellipse
       style="display:inline;opacity:0.98000004;fill:#cccccc;fill-opacity:1;stroke:#050508;stroke-width:0.79839939;stroke-miterlimit:4;stroke-dasharray:none;stroke-opacity:1"
       id="path4811-7-3-9"
       cx="85.0811"
       cy="163.03647"
       rx="22.736128"
       ry="22.442875" />
    <path
       sodipodi:type="star"
       style="opacity:0.98000004;fill:#ffffff;fill-opacity:1;stroke:#050508;stroke-width:0.71399999;stroke-miterlimit:4;stroke-dasharray:none;stroke-opacity:1"
       id="path4893"
       sodipodi:sides="12"
       sodipodi:cx="84.508797"
       sodipodi:cy="158.91637"
       sodipodi:r1="15.474343"
       sodipodi:r2="20.09655"
       sodipodi:arg1="0.72016422"
       sodipodi:arg2="0.98196361"
       inkscape:flatsided="false"
       inkscape:rounded="0"
       inkscape:randomized="0"
       d="m 96.140821,169.12182 -0.470587,6.50663 -6.190536,-2.05789 -3.660854,5.39961 -4.332219,-4.87745 -5.870196,2.84577 -1.313087,-6.3901 -6.506626,-0.47059 2.057885,-6.19053 -5.399609,-3.66086 4.877449,-4.33221 -2.845773,-5.8702 6.390105,-1.31309 0.470587,-6.50662 6.190536,2.05788 3.660853,-5.39961 4.332219,4.87745 5.870197,-2.84577 1.313087,6.3901 6.506628,0.47059 -2.057888,6.19054 5.399608,3.66085 -4.877447,4.33222 2.845777,5.87019 z"
       inkscape:transform-center-y="-2.5564642e-06"
       transform="matrix(0.79048489,0,0,0.74123257,18.270576,44.910346)" />
    <path
       style="fill:none;stroke:#808080;stroke-width:0.36296073px;stroke-linecap:butt;stroke-linejoin:miter;stroke-opacity:1"
       d="m 71.327165,171.25403 12.436222,14.15089"
       id="path4899"
       inkscape:connector-curvature="0" />
    <path
       style="opacity:0.98000004;fill:#808080;fill-opacity:1;stroke:#808080;stroke-width:0.26379201;stroke-miterlimit:4;stroke-dasharray:none;stroke-opacity:1"
       d="m 83.640875,184.88524 c -0.259117,-0.22416 -11.964007,-13.55313 -11.930854,-13.58628 0.04195,-0.042 4.952142,0.31258 5.000623,0.36106 0.02589,0.0259 0.278141,1.11215 0.560607,2.41396 0.282467,1.30182 0.553461,2.36694 0.60221,2.36694 0.04875,0 1.118572,-0.46514 2.377382,-1.03365 1.258809,-0.56851 2.323603,-1.01939 2.366203,-1.00196 0.04259,0.0174 0.840566,0.83568 1.773256,1.81834 0.932685,0.98267 1.729928,1.77447 1.771644,1.75954 0.04172,-0.0149 0.728095,-0.93152 1.52528,-2.03689 l 1.449426,-2.00979 2.474714,0.77119 c 1.361092,0.42415 2.500283,0.74561 2.531531,0.71436 0.04937,-0.0494 0.395737,-3.98222 0.40971,-4.65213 0.0051,-0.24338 0.0294,-0.25032 2.522244,-0.72045 1.384412,-0.2611 2.553926,-0.50844 2.598914,-0.54965 0.045,-0.0412 -0.429128,-1.06496 -1.053594,-2.27499 l -1.135396,-2.20005 1.957803,-1.63147 c 1.076792,-0.89731 1.956002,-1.66081 1.953792,-1.69665 -0.002,-0.0358 -0.90172,-0.63054 -1.998937,-1.32154 -1.097216,-0.691 -2.071247,-1.31218 -2.16452,-1.38037 -0.15714,-0.11496 -0.113408,-0.28449 0.596064,-2.31159 0.421108,-1.20318 0.7921,-2.21444 0.824433,-2.24727 0.04744,-0.0481 4.94301,5.15529 8.06542,8.57264 l 0.67524,0.73901 -0.12017,1.23885 c -0.49938,5.15032 -2.67033,9.79576 -6.26463,13.4052 -4.145533,4.16296 -9.397796,6.42125 -15.395904,6.6197 -1.631224,0.0539 -1.775069,0.0447 -1.972546,-0.12607 z"
       id="path4950"
       inkscape:connector-curvature="0" />
    <path
       style="opacity:0.98000004;fill:#808080;fill-opacity:1;stroke:#808080;stroke-width:0.065948;stroke-miterlimit:4;stroke-dasharray:none;stroke-opacity:1"
       d="m 95.869624,153.99335 c -1.357368,-0.0936 -2.474218,-0.18022 -2.481892,-0.19263 -0.02188,-0.0354 -1.053783,-4.76358 -1.045167,-4.78893 0.0043,-0.0123 1.332843,1.11122 2.952471,2.49699 1.619629,1.38578 2.983026,2.55128 3.029772,2.58998 0.04675,0.0387 0.06874,0.0691 0.04888,0.0675 -0.01985,-0.001 -1.146691,-0.0794 -2.504059,-0.17293 z"
       id="path4956"
       inkscape:connector-curvature="0" />
    <path
       style="opacity:0.98000004;fill:#ffffff;fill-opacity:1;stroke:#101010;stroke-width:0.55748475;stroke-miterlimit:4;stroke-dasharray:none;stroke-opacity:1"
       d="m 33.576796,224.40341 c -2.009058,0 -3.626754,1.63541 -3.626754,3.66647 v 14.59068 a 7.5891195,7.4164507 0 0 0 -4.047118,6.5538 7.5891195,7.4164507 0 0 0 7.589104,7.41601 7.5891195,7.4164507 0 0 0 7.589104,-7.41601 7.5891195,7.4164507 0 0 0 -3.877587,-6.46462 v -14.67986 c 0,-2.03106 -1.617697,-3.66647 -3.626749,-3.66647 z"
       id="path4958"
       inkscape:connector-curvature="0" />
    <path
       style="display:inline;opacity:0.98000004;fill:#000000;fill-opacity:1;stroke:#101010;stroke-width:0.48578194;stroke-miterlimit:4;stroke-dasharray:none;stroke-opacity:1"
       d="m 32.23424,239.68826 0.09932,4.49337 c -1.277952,0.73457 -2.773339,2.17893 -2.774459,3.75307 0,2.34566 1.745451,4.24718 3.898553,4.24715 2.153103,3e-5 3.898555,-1.90149 3.898555,-4.24715 -7.38e-4,-1.53541 -1.358052,-2.95083 -2.587282,-3.70194 l -0.01754,-4.55053 z"
       id="path4958-2"
       inkscape:connector-curvature="0"
       sodipodi:nodetypes="cccccccc" />
    <path
       style="opacity:0.98000004;fill:#808080;fill-opacity:1;stroke:#828282;stroke-width:0.03406324;stroke-miterlimit:4;stroke-dasharray:none;stroke-opacity:1"
       d="m 36.295213,259.99583 c -5.411002,-3.32438 -6.186693,-3.80354 -6.132516,-3.7882 0.02733,0.009 0.189313,0.0714 0.360005,0.14141 0.576188,0.23641 1.257006,0.41217 1.986241,0.51274 0.388717,0.0537 1.47249,0.0614 1.862098,0.0139 1.048701,-0.1292 1.917258,-0.39378 2.817982,-0.85838 1.708867,-0.88146 3.033445,-2.37152 3.710499,-4.17402 0.312687,-0.83247 0.456379,-1.64519 0.458783,-2.59492 0.0018,-0.79218 -0.06881,-1.33257 -0.271531,-2.07227 -0.04766,-0.17391 -0.08667,-0.32065 -0.08667,-0.32612 0,-0.005 2.781979,-0.01 6.182173,-0.01 h 6.182171 v 2.65789 2.65788 l -0.189412,0.30285 c -1.134536,1.81405 -2.670336,3.59617 -4.341699,5.03809 -2.174782,1.87621 -4.770039,3.35992 -7.510467,4.29372 -0.488793,0.16655 -1.323886,0.41824 -1.386486,0.41786 -0.02261,-1.3e-4 -1.66115,-0.99554 -3.641183,-2.21201 z"
       id="path5031"
       inkscape:connector-curvature="0" />
    <path
       style="opacity:0.98000004;fill:#808080;fill-opacity:1;stroke:#828282;stroke-width:0.09634539;stroke-miterlimit:4;stroke-dasharray:none;stroke-opacity:1"
       d="m 53.411669,249.38669 -0.0023,-2.62369 -6.21484,0.0258 c -4.240897,0.0176 -6.21484,0.003 -6.21484,-0.0468 0,-0.15281 -0.774492,-1.63123 -1.038907,-1.98314 -0.56605,-0.75338 -1.520131,-1.6542 -2.11379,-1.99578 l -0.282996,-0.16284 -0.0216,-7.61934 c -0.02039,-7.18059 -0.02906,-7.64155 -0.150926,-8.00554 -0.181276,-0.54149 -0.440135,-1.03769 -0.723542,-1.38694 -0.13321,-0.16414 -0.228213,-0.29845 -0.211133,-0.29845 0.01708,0 4.49862,2.70978 9.958981,6.02173 l 9.927924,6.02173 0.08562,0.56179 c 0.136583,0.89627 0.190094,3.37984 0.09669,4.48706 -0.170785,2.02426 -0.607864,4.02144 -1.284865,5.871 -0.335734,0.91721 -1.266095,2.90181 -1.629571,3.4761 l -0.177784,0.28089 -0.0023,-2.62369 z"
       id="path5033"
       inkscape:connector-curvature="0" />
    <ellipse
       style="opacity:0.98000004;fill:#000000;fill-opacity:1;stroke:#000000;stroke-width:0.63628423;stroke-miterlimit:4;stroke-dasharray:none;stroke-opacity:1"
       id="path5045"
       cx="138.56194"
       cy="239.18364"
       rx="13.515751"
       ry="13.30249" />
    <path
       style="opacity:0.98000004;fill:#ffffff;fill-opacity:1;stroke:#000000;stroke-width:0.36181855;stroke-miterlimit:4;stroke-dasharray:none;stroke-opacity:1"
       d="m 138.63319,226.41318 a 13.006629,12.31494 0 0 0 -13.00667,12.31496 13.006629,12.31494 0 0 0 0.008,0.19547 h 25.99531 a 13.006629,12.31494 0 0 0 0.01,-0.19547 13.006629,12.31494 0 0 0 -13.00667,-12.31496 z"
       id="path5049"
       inkscape:connector-curvature="0" />
    <path
       style="opacity:0.98000004;fill:#ffffff;fill-opacity:1;stroke:#000000;stroke-width:0.53202921;stroke-miterlimit:4;stroke-dasharray:none;stroke-opacity:1"
       d="m 138.34858,236.06562 a 3.6865593,3.6154729 0 0 0 -3.64825,3.12406 h 7.2965 a 3.6865593,3.6154729 0 0 0 -3.64825,-3.12406 z"
       id="path5054"
       inkscape:connector-curvature="0" />
    <path
       style="fill:none;stroke:#000000;stroke-width:0.37328202px;stroke-linecap:butt;stroke-linejoin:miter;stroke-opacity:1"
       d="m 140.41017,236.48233 6.89542,-4.26521"
       id="path5059"
       inkscape:connector-curvature="0" />
    <path
       style="fill:none;stroke:#000000;stroke-width:0.37328202px;stroke-linecap:butt;stroke-linejoin:miter;stroke-opacity:1"
       d="m 147.30559,232.21712 -5.98356,5.03704"
       id="path5061"
       inkscape:connector-curvature="0" />
    <path
       style="fill:#000000;stroke:#000000;stroke-width:0.37328202px;stroke-linecap:butt;stroke-linejoin:miter;stroke-opacity:1"
       d="m 147.30559,232.21712 -5.98356,5.03704"
       id="path5101"
       inkscape:connector-curvature="0" />
    <path
       style="fill:none;stroke:#000000;stroke-width:0.37328202px;stroke-linecap:butt;stroke-linejoin:miter;stroke-opacity:1"
       d="m 141.74929,235.7839 c -0.0375,0.0127 0.01,0.0442 0,0.0628 -0.003,0.006 -0.01,0.007 -0.0127,0.0127 -0.001,0.004 0,0.008 0,0.0127 0,0.008 0.003,0.0172 0,0.0251 -0.001,0.006 -0.01,0.007 -0.0127,0.0127 -0.001,0.004 0.003,0.008 0,0.0127 -0.007,0.01 -0.019,0.015 -0.0251,0.0251 -0.0141,0.0227 -0.0113,0.0526 -0.0251,0.0753 -0.006,0.01 -0.019,0.015 -0.0251,0.0251 -0.007,0.0113 -0.007,0.0258 -0.0127,0.0377 -0.007,0.0141 -0.0183,0.0241 -0.0251,0.0377 -0.0336,0.0672 -0.016,0.0461 -0.0377,0.10045 -0.003,0.008 -0.008,0.0164 -0.0127,0.0251 -0.004,0.0127 -0.007,0.0254 -0.0127,0.0377 -0.003,0.008 -0.008,0.0164 -0.0127,0.0251 -0.006,0.0127 -0.007,0.0254 -0.0127,0.0377 -0.003,0.008 -0.01,0.0161 -0.0127,0.0251 -0.001,0.008 0.001,0.0171 0,0.0251 -0.003,0.008 -0.008,0.0168 -0.0127,0.0251 -0.0288,0.0574 0.008,-0.0127 -0.0377,0.0628 -0.004,0.008 -0.008,0.0168 -0.0127,0.0251 -0.004,0.008 -0.01,0.0161 -0.0127,0.0251 -10e-4,0.008 0.003,0.0172 0,0.0251 -10e-4,0.006 -0.01,0.007 -0.0127,0.0127 -0.0293,0.007 -0.007,0.0356 -0.0127,0.0502 -0.003,0.008 -0.01,0.0162 -0.0127,0.0251 -0.001,0.004 0.001,0.008 0,0.0127 -0.003,0.006 -0.0113,0.007 -0.0127,0.0127 -0.003,0.008 0.003,0.0172 0,0.0251 -0.001,0.006 -0.01,0.007 -0.0127,0.0127 -0.001,0.003 -0.001,0.036 0,0.0377 0.003,0.003 0.008,0 0.0127,0"
       id="path5109"
       inkscape:connector-curvature="0" />
    <path
       style="fill:none;stroke:#000000;stroke-width:0.37328202px;stroke-linecap:butt;stroke-linejoin:miter;stroke-opacity:1"
       d="m 141.04557,236.27399 c -0.0214,0.0401 -0.0521,0.0742 -0.0753,0.11315 -0.0176,0.0295 -0.0113,0.0268 -0.0251,0.0628 -0.003,0.008 -0.01,0.0162 -0.0127,0.0251 -0.0178,0.0536 -0.0288,0.11597 0.0377,0.13826 0.004,10e-4 0.008,0 0.0127,0 0.008,0 0.0168,0 0.0251,0 0.008,0 0.0168,0 0.0251,0 0.004,0 0.008,10e-4 0.0127,0 0.006,-0.003 0.01,-0.007 0.0127,-0.0127 0.001,-0.004 0,-0.008 0,-0.0127 0,-0.0127 0.004,-0.026 0,-0.0377 -0.004,-0.0113 -0.0168,-0.0168 -0.0251,-0.0251 -0.004,-0.004 -0.007,-0.01 -0.0127,-0.0127 -0.008,-0.006 -0.0174,-0.007 -0.0251,-0.0127 -0.004,-0.003 -0.008,-0.008 -0.0127,-0.0127 -0.008,-0.008 -0.0152,-0.0185 -0.0251,-0.0251 -0.003,-0.003 -0.01,0.003 -0.0127,0 -0.0168,-0.0168 0.0209,-0.0127 -0.0127,-0.0127"
       id="path5111"
       inkscape:connector-curvature="0" />
    <path
       style="fill:none;stroke:#000000;stroke-width:0.37328202px;stroke-linecap:butt;stroke-linejoin:miter;stroke-opacity:1"
       d="m 140.41017,236.48233 c 0.0694,-0.0234 0.13643,-0.0554 0.20814,-0.0701 0.01,-0.001 0.008,0.0171 0.0127,0.0251 0.008,0.0127 0.0173,0.0247 0.0251,0.0377 0.01,0.0161 0.0141,0.0353 0.0251,0.0502 0.007,0.01 0.018,0.0157 0.0251,0.0251 0.006,0.007 0.007,0.0176 0.0127,0.0251 0.003,0.004 0.055,0.0576 0.0628,0.0628 0.008,0.006 0.0173,0.007 0.0251,0.0127 0.004,0.003 0.007,0.0113 0.0127,0.0127 0.0127,0.003 0.0255,-0.003 0.0377,0 0.006,10e-4 0.007,0.01 0.0127,0.0127 0.008,0.004 0.0168,0.008 0.0251,0.0127 0.004,0 0.008,-0.001 0.0127,0 0.0576,0.0288 -0.0533,-0.006 0.0377,0.0251 0.008,0.003 0.0303,-0.004 0.0377,0 0.031,0.0155 -0.004,0.0127 0.0251,0.0127 0.007,0 0.047,-0.001 0.0502,0 0.0384,0.0192 -0.023,0.01 0.0377,0.0251 0.008,0.001 0.0172,-0.003 0.0251,0 0.006,0.001 0.008,0.008 0.0127,0.0127 0.008,0.008 0.0168,0.0168 0.0251,0.0251 0.008,0.008 0.0168,0.0168 0.0251,0.0251 0.0127,0.0127 0.0278,0.0229 0.0377,0.0377 0.007,0.0113 0.006,0.0264 0.0127,0.0377 0.0127,0.0203 0.0361,0.0313 0.0502,0.0502 0.006,0.007 0.006,0.0185 0.0127,0.0251 0.0113,0.0113 0.0255,0.0161 0.0377,0.0251 0.004,0.004 0.008,0.008 0.0127,0.0127"
       id="path5113"
       inkscape:connector-curvature="0" />
    <path
       style="fill:none;stroke:#000000;stroke-width:0.37328202px;stroke-linecap:butt;stroke-linejoin:miter;stroke-opacity:1"
       d="m 141.04557,236.27399 c 0.0168,0.0336 0.0255,0.0724 0.0502,0.10059 0.008,0.01 0.0251,0 0.0377,0 0.0336,0 0.0672,0.003 0.1006,0 0.042,-0.003 0.0838,-0.008 0.1257,-0.0127 0.17982,-0.02 0.0229,0.004 0.21363,-0.0628 0.045,-0.0158 0.0931,-0.0219 0.13826,-0.0377 0.0389,-0.0141 0.0749,-0.0347 0.11315,-0.0502 0.0749,-0.0305 0.15282,-0.0539 0.2262,-0.088 0.0443,-0.0206 0.0832,-0.0512 0.1257,-0.0753 0.003,-0.001 0.235,-0.12768 0.25134,-0.13826 0.0351,-0.0227 0.0667,-0.0505 0.10045,-0.0753 0.0459,-0.0337 0.0904,-0.0695 0.13826,-0.10059 0.0236,-0.0152 0.0526,-0.0212 0.0753,-0.0377 0.0593,-0.043 0.0581,-0.0636 0.10045,-0.11315 0.0113,-0.0141 0.0271,-0.0234 0.0377,-0.0377 0.0147,-0.0196 0.0268,-0.0411 0.0377,-0.0628 0.006,-0.0113 0.004,-0.0271 0.0127,-0.0377 7.5e-4,-0.0354 0.0284,-0.003 0.0377,-0.0127 0.003,-0.003 -0.001,-0.008 0,-0.0127 0.0144,-0.0433 0.0127,-0.01 0.0127,-0.0377"
       id="path5121"
       inkscape:connector-curvature="0" />
    <path
       style="fill:none;stroke:#000000;stroke-width:0.37328202px;stroke-linecap:butt;stroke-linejoin:miter;stroke-opacity:1"
       d="m 141.33516,236.99065 c 0.004,-0.0252 -0.001,-0.0542 0.0127,-0.0758 0.0175,-0.0277 0.0512,-0.0408 0.0753,-0.0628 0.0219,-0.0199 0.0399,-0.044 0.0628,-0.0628 0.22054,-0.18044 -0.092,0.1085 0.16336,-0.1257 0.0567,-0.0521 0.10694,-0.11103 0.16336,-0.16336 0.024,-0.0223 0.0512,-0.0408 0.0753,-0.0628 0.0219,-0.0199 0.0399,-0.044 0.0628,-0.0628 0.0234,-0.019 0.0518,-0.0315 0.0753,-0.0502 0.17482,-0.13981 -0.12613,0.0666 0.13826,-0.12571 0.0152,-0.0113 0.0358,-0.0127 0.0502,-0.0251 0.0927,-0.0773 -0.0535,0.003 0.0628,-0.0753 0.0113,-0.007 0.0251,-0.008 0.0377,-0.0127 0.0127,-0.008 0.026,-0.0157 0.0377,-0.0251 0.003,-0.001 0.0453,-0.0427 0.0502,-0.0502 0.006,-0.008 0.006,-0.0185 0.0127,-0.0251 0.0152,-0.0154 0.0281,-0.006 0.0377,-0.0251 0.001,-0.004 -0.001,-0.008 0,-0.0127 0.003,-0.006 0.01,-0.007 0.0127,-0.0127 0.001,-0.004 -0.001,-0.008 0,-0.0127 0.008,-0.0155 0.0127,-0.0127 0.0251,-0.0127"
       id="path5123"
       inkscape:connector-curvature="0" />
    <path
       style="fill:none;stroke:#000000;stroke-width:0.37328202px;stroke-linecap:butt;stroke-linejoin:miter;stroke-opacity:1"
       d="m 140.93228,236.44922 c 0.25302,-0.10624 -0.006,-3e-4 0.12584,-0.0495 0.0212,-0.008 0.0415,-0.0181 0.0628,-0.0251 0.0289,-0.01 0.0587,-0.0168 0.088,-0.0251 0.0293,-0.008 0.0584,-0.0178 0.088,-0.0251 0.0375,-0.01 0.076,-0.0141 0.11315,-0.0251 0.0261,-0.008 0.19877,-0.0729 0.23875,-0.088 0.0336,-0.0127 0.0665,-0.0269 0.10059,-0.0377 0.31455,-0.0983 -0.13403,0.0588 0.21363,-0.0628 0.0247,-0.008 0.19976,-0.0724 0.23877,-0.088 0.0593,-0.0237 0.11583,-0.0539 0.17593,-0.0753 0.0286,-0.01 0.0587,-0.0168 0.0879,-0.0251 0.0461,-0.0209 0.0913,-0.044 0.13826,-0.0628 0.0161,-0.007 0.0353,-0.004 0.0502,-0.0127 0.0154,-0.008 0.0233,-0.0274 0.0377,-0.0377 0.0152,-0.0113 0.0341,-0.0155 0.0502,-0.0251 0.006,-0.003 0.008,-0.008 0.0127,-0.0127 0.008,-0.004 0.0168,-0.008 0.0251,-0.0127"
       id="path5125"
       inkscape:connector-curvature="0" />
    <path
       style="fill:none;stroke:#000000;stroke-width:0.37328202px;stroke-linecap:butt;stroke-linejoin:miter;stroke-opacity:1"
       d="m 141.7239,235.90988 c -0.0251,0.0375 -0.0643,0.069 -0.0752,0.11273 -0.004,0.0168 0.0336,-0.008 0.0502,-0.0127 0.0168,-0.004 0.0334,-0.008 0.0502,-0.0127 0.37844,-0.0841 0.0113,0.007 0.28902,-0.0753 0.21189,-0.0624 -0.0158,0.0141 0.21364,-0.0502 0.13897,-0.0387 0.0923,-0.0405 0.23876,-0.0753 0.12768,-0.0303 0.24335,-0.0262 0.35186,-0.11315 0.01,-0.008 0.007,-0.0258 0.0127,-0.0377 0.01,-0.0207 0.024,-0.003 0.0127,-0.0377 -0.004,-0.0113 -0.0343,-0.0195 -0.0251,-0.0377 0.0229,-0.0457 0.0587,-0.0837 0.088,-0.12557"
       id="path5127"
       inkscape:connector-curvature="0" />
    <path
       style="fill:none;stroke:#000000;stroke-width:0.37328202px;stroke-linecap:butt;stroke-linejoin:miter;stroke-opacity:1"
       d="m 141.7239,235.90988 c -0.004,-0.0252 -0.0219,-0.0519 -0.0127,-0.0758 0.01,-0.025 0.0416,-0.0339 0.0628,-0.0502 0.15887,-0.12218 0.0377,-0.0348 0.20107,-0.12571 0.0427,-0.0237 0.082,-0.0536 0.12571,-0.0755 0.0487,-0.0243 0.10341,-0.036 0.1508,-0.0628 0.0495,-0.0281 0.0896,-0.071 0.13826,-0.10059 0.19015,-0.11541 0.19278,-0.10229 0.377,-0.17593 0.0505,-0.0202 0.0999,-0.0435 0.15081,-0.0628 0.0908,-0.0347 0.11202,-0.0284 0.18848,-0.0755 0.0306,-0.0189 0.0571,-0.0443 0.088,-0.0628 0.0113,-0.007 0.0284,-0.003 0.0377,-0.0127 0.0152,-0.0152 0.0127,-0.0437 0.0127,-0.0628"
       id="path5129"
       inkscape:connector-curvature="0" />
    <path
       style="fill:none;stroke:#000000;stroke-width:0.37328202px;stroke-linecap:butt;stroke-linejoin:miter;stroke-opacity:1"
       d="m 142.65407,235.3315 c 0.0715,-0.0143 0.077,-0.0113 0.1508,-0.0502 0.0349,-0.0186 0.0649,-0.0457 0.1006,-0.0628 0.0694,-0.0333 0.14307,-0.0571 0.21362,-0.088 0.0635,-0.0278 0.12571,-0.0587 0.1885,-0.0879 0.0628,-0.0293 0.12599,-0.0578 0.18849,-0.088 0.0591,-0.0285 0.1147,-0.0645 0.17593,-0.088 0.0484,-0.0186 0.10116,-0.023 0.1508,-0.0377 0.0635,-0.0188 0.12543,-0.0428 0.18851,-0.0628 0.0291,-0.01 0.0607,-0.0113 0.088,-0.0251 0.0159,-0.008 0.0217,-0.0298 0.0377,-0.0377 0.0419,-0.0209 0.0377,0.0196 0.0377,-0.0127"
       id="path5131"
       inkscape:connector-curvature="0" />
    <path
       style="fill:none;stroke:#000000;stroke-width:0.37328202px;stroke-linecap:butt;stroke-linejoin:miter;stroke-opacity:1"
       d="m 142.98094,235.38164 c 0.0711,-0.008 0.14271,-0.0141 0.21349,-0.025 0.0127,-0.001 0.0587,-0.0353 0.0628,-0.0377 0.0289,-0.0173 0.0598,-0.0316 0.0879,-0.0502 0.0223,-0.0149 0.0396,-0.0368 0.0628,-0.0502 0.0275,-0.0161 0.0591,-0.0241 0.088,-0.0377 0.034,-0.0158 0.0679,-0.0319 0.10059,-0.0502 0.0344,-0.0193 0.0649,-0.0459 0.10059,-0.0628 0.0526,-0.0251 0.11019,-0.0389 0.16336,-0.0628 0.0308,-0.0141 0.0577,-0.0351 0.0879,-0.0502 0.0285,-0.0142 0.059,-0.0243 0.088,-0.0377 0.0255,-0.0113 0.0502,-0.0251 0.0753,-0.0377 0.0592,-0.0296 0.12232,-0.0584 0.16337,-0.11315 0.003,-0.003 0,-0.008 0,-0.0127 0,-0.004 0,-0.008 0,-0.0127 0,-0.0597 0.008,-0.0231 -0.10045,-0.0504"
       id="path5133"
       inkscape:connector-curvature="0" />
    <path
       style="fill:none;stroke:#000000;stroke-width:0.37328202px;stroke-linecap:butt;stroke-linejoin:miter;stroke-opacity:1"
       d="m 144.17466,234.69062 c -0.0461,0.0251 -0.0927,0.0494 -0.13826,0.0753 -0.0162,0.01 0.0344,-0.0152 0.0502,-0.0251 0.0178,-0.0113 0.0336,-0.0251 0.0502,-0.0377 0.0377,-0.0168 0.0773,-0.0298 0.11315,-0.0502 0.0233,-0.0127 0.0394,-0.0374 0.0628,-0.0502 0.0233,-0.0127 0.0516,-0.0127 0.0753,-0.0251 0.0188,-0.01 0.0325,-0.0267 0.0502,-0.0377 0.0398,-0.0248 0.0849,-0.0396 0.1257,-0.0628 0.006,-0.003 0.008,-0.008 0.0127,-0.0127 0.0412,-0.0309 0.0377,-0.008 0.0377,-0.0377"
       id="path5135"
       inkscape:connector-curvature="0" />
    <path
       style="fill:none;stroke:#000000;stroke-width:0.37328202px;stroke-linecap:butt;stroke-linejoin:miter;stroke-opacity:1"
       d="m 144.13685,234.70317 c -0.0168,-0.0587 -0.0389,-0.11597 -0.0502,-0.17593 -0.001,-0.01 0.007,-0.0175 0.0127,-0.0251 0.0155,-0.0219 0.0341,-0.0413 0.0502,-0.0628 0.008,-0.0127 0.0176,-0.0245 0.0251,-0.0377 0.01,-0.0162 0.0141,-0.0353 0.0251,-0.0502 0.0143,-0.0189 0.0336,-0.0336 0.0502,-0.0502 0.008,-0.008 0.0159,-0.0175 0.0251,-0.0251 0.0968,-0.0805 0.008,0.004 0.088,-0.0753 0.004,-0.004 0.007,-0.01 0.0127,-0.0127 0.0168,-0.008 0.0127,0.0127 0.0127,-0.0127"
       id="path5137"
       inkscape:connector-curvature="0" />
    <path
       style="fill:none;stroke:#000000;stroke-width:0.37328202px;stroke-linecap:butt;stroke-linejoin:miter;stroke-opacity:1"
       d="m 144.01126,234.38902 c 0.055,0 0.055,0.003 0.11315,-0.0127 0.0255,-0.007 0.0497,-0.019 0.0753,-0.0251 0.0456,-0.0113 0.093,-0.0127 0.13826,-0.0251 0.0346,-0.008 0.067,-0.0251 0.10059,-0.0377 0.0336,-0.0127 0.068,-0.0227 0.10059,-0.0377 0.0222,-0.01 0.0402,-0.0282 0.0628,-0.0377 0.0281,-0.0113 0.0607,-0.0113 0.0879,-0.0251 0.0175,-0.008 0.0831,-0.0662 0.10059,-0.088 0.006,-0.007 0.006,-0.0185 0.0127,-0.0251 0.0113,-0.0113 0.0269,-0.0144 0.0377,-0.0251 0.003,-0.003 -10e-4,-0.008 0,-0.0127 0.003,-0.006 0.008,-0.008 0.0127,-0.0127"
       id="path5139"
       inkscape:connector-curvature="0" />
    <path
       style="fill:none;stroke:#000000;stroke-width:0.37328202px;stroke-linecap:butt;stroke-linejoin:miter;stroke-opacity:1"
       d="m 144.38854,234.17538 c 0.0794,-0.008 0.1615,-0.004 0.23848,-0.0251 0.0315,-0.008 0.0501,-0.0422 0.0753,-0.0628 0.0207,-0.0169 0.0405,-0.0354 0.0628,-0.0502 0.0281,-0.0188 0.0577,-0.0351 0.088,-0.0502 0.0782,-0.0391 0.0566,-0.006 0.12571,-0.0753 0.19713,-0.19715 -0.0562,0.0447 0.0753,-0.11315 0.01,-0.0113 0.0286,-0.0127 0.0377,-0.0251 0.006,-0.007 -0.003,-0.0172 0,-0.0251 0.0155,-0.0465 0.0127,0.0152 0.0127,-0.0251"
       id="path5141"
       inkscape:connector-curvature="0" />
    <path
       style="fill:none;stroke:#000000;stroke-width:0.37328202px;stroke-linecap:butt;stroke-linejoin:miter;stroke-opacity:1"
       d="m 144.13685,234.70317 c -0.0293,-0.004 -0.0583,-0.0127 -0.0879,-0.0127 -0.0303,0 -0.0186,0.0155 -0.0377,0.0251 -0.0113,0.006 -0.0255,0.007 -0.0377,0.0127 -0.0344,0.0147 -0.0655,0.0371 -0.10059,0.0502 -0.0162,0.006 -0.0339,0.007 -0.0502,0.0127 -0.0214,0.007 -0.0419,0.0168 -0.0628,0.0251 -0.0559,0.0223 -0.0938,0.037 -0.15079,0.0628 -0.0341,0.0155 -0.067,0.0336 -0.10059,0.0502 -0.008,0.004 -0.0174,0.007 -0.0251,0.0127 -0.004,0.003 -0.007,0.0113 -0.0127,0.0127 -0.0752,0.008 -0.15093,0.008 -0.22638,0.0127"
       id="path5143"
       inkscape:connector-curvature="0" />
    <path
       style="fill:none;stroke:#000000;stroke-width:0.37328202px;stroke-linecap:butt;stroke-linejoin:miter;stroke-opacity:1"
       d="m 143.6971,234.60265 0.088,0.12571"
       id="path5145"
       inkscape:connector-curvature="0" />
    <path
       style="fill:none;stroke:#000000;stroke-width:0.37328202px;stroke-linecap:butt;stroke-linejoin:miter;stroke-opacity:1"
       d="m 143.24445,234.96742 -0.96737,0.64055"
       id="path5147"
       inkscape:connector-curvature="0" />
    <path
       style="fill:none;stroke:#000000;stroke-width:0.37328202px;stroke-linecap:butt;stroke-linejoin:miter;stroke-opacity:1"
       d="m 144.38854,234.17538 c -0.0629,0.067 -0.12373,0.13615 -0.18878,0.20107 -0.007,0.007 -0.0173,0.007 -0.0251,0.0127 -0.0148,0.01 -0.0234,0.0271 -0.0377,0.0377 -0.007,0.006 -0.0171,0.008 -0.0251,0.0127 -0.026,0.0155 -0.0495,0.0347 -0.0753,0.0502 -0.008,0.004 -0.0171,0.007 -0.0251,0.0127 -0.0127,0.008 -0.0247,0.0173 -0.0377,0.0251 -0.008,0.004 -0.0176,0.007 -0.0251,0.0127 -0.01,0.007 -0.0152,0.0185 -0.0251,0.0251 -0.0157,0.01 -0.0357,0.0141 -0.0502,0.0251 -0.007,0.006 -0.006,0.0185 -0.0127,0.0251 -0.003,0.003 -0.008,-0.001 -0.0127,0 -0.006,0.003 -0.007,0.01 -0.0127,0.0127 -0.004,0.001 -0.0113,-0.004 -0.0127,0 -0.0159,0.032 -0.0251,0.067 -0.0377,0.10059"
       id="path5149"
       inkscape:connector-curvature="0" />
    <path
       style="fill:none;stroke:#000000;stroke-width:0.37328202px;stroke-linecap:butt;stroke-linejoin:miter;stroke-opacity:1"
       d="m 142.93058,235.4447 c -0.0502,0.0209 -0.10215,0.0384 -0.15083,0.0628 -0.0113,0.006 -0.015,0.019 -0.0251,0.0251 -0.0113,0.007 -0.0262,0.006 -0.0377,0.0127 -0.0364,0.0207 -0.0639,0.055 -0.10059,0.0753 -0.0197,0.0113 -0.0426,0.0151 -0.0628,0.0251 -0.23169,0.11583 0.11879,-0.0399 -0.13826,0.0628 -0.0679,0.0183 -0.12444,0.0612 -0.1885,0.0879 -0.0244,0.01 -0.0508,0.0154 -0.0753,0.0251 -0.0349,0.0141 -0.067,0.0336 -0.10059,0.0502 -0.0168,0.008 -0.0326,0.0192 -0.0502,0.0251 -0.008,0.003 -0.0168,0 -0.0251,0 -0.0796,5e-5 -0.15926,1.2e-4 -0.2389,1.8e-4"
       id="path5151"
       inkscape:connector-curvature="0" />
    <path
       style="fill:none;stroke:#000000;stroke-width:0.37328202px;stroke-linecap:butt;stroke-linejoin:miter;stroke-opacity:1"
       d="m 142.93058,235.4447 c -0.0339,0.12712 -0.1546,0.0595 -0.22624,0.10046 -0.0313,0.0179 -0.0567,0.045 -0.0879,0.0628 -0.0325,0.0186 -0.067,0.0336 -0.10045,0.0502 -0.0419,0.0209 -0.0838,0.0419 -0.1257,0.0628 -0.0168,0.008 -0.034,0.0158 -0.0502,0.0251 -0.0127,0.007 -0.0238,0.0192 -0.0377,0.0251 -0.0158,0.007 -0.0344,0.006 -0.0502,0.0127 -0.0141,0.006 -0.0247,0.0173 -0.0377,0.0251 -0.0289,0.0174 -0.0604,0.0309 -0.088,0.0502 -0.0145,0.01 -0.0229,0.0278 -0.0377,0.0377 -0.0113,0.007 -0.0258,0.007 -0.0377,0.0127 -0.1509,0.0755 0.054,-0.0199 -0.0628,0.0502 -0.0759,0.0456 -0.006,-0.007 -0.0628,0.0127 -0.0113,0.004 -0.0145,0.0198 -0.0251,0.0251 -0.004,0.001 -0.008,-0.001 -0.0127,0 -0.0576,0.0288 0.0533,-0.006 -0.0377,0.0251 -0.004,0.001 -0.008,-0.001 -0.0127,0 -0.006,0.003 -0.007,0.01 -0.0127,0.0127 -0.004,0.001 -0.008,0 -0.0127,0 -0.008,0 -0.0172,-0.003 -0.0251,0 -0.006,0.001 -0.007,0.0113 -0.0127,0.0127 -0.008,0.003 -0.0168,0 -0.0251,0 -0.0164,0 -0.0628,-0.003 -0.0753,0 -0.01,0.001 -0.0161,0.01 -0.0251,0.0127 -0.0188,0.004 -0.0554,-0.004 -0.0755,0 -0.0127,0.003 -0.0248,0.01 -0.0377,0.0127 -0.01,0.003 -0.0429,-0.004 -0.0502,0 -0.006,0.003 -0.015,0.007 -0.0127,0.0127 0.0243,0.0569 0.0584,0.10906 0.0875,0.16354"
       id="path5153"
       inkscape:connector-curvature="0" />
    <path
       style="fill:none;stroke:#000000;stroke-width:0.37328202px;stroke-linecap:butt;stroke-linejoin:miter;stroke-opacity:1"
       d="m 141.64861,236.06081 c -0.0711,0.0166 -0.14304,0.0303 -0.21348,0.0498 -0.006,0.001 -0.01,0.007 -0.0127,0.0127 -0.004,0.007 0.003,0.0536 0,0.0628 -0.003,0.008 -0.01,0.0161 -0.0127,0.0251 -0.001,0.008 0.001,0.0171 0,0.0251 -0.003,0.008 -0.01,0.0161 -0.0127,0.0251 -0.001,0.008 0.003,0.0172 0,0.0251 -0.006,0.0178 -0.02,0.0323 -0.0251,0.0502 -0.003,0.0127 0.003,0.0253 0,0.0377 0.004,0.0255 -0.0207,0.0406 -0.0251,0.0628 -0.003,0.0127 0.003,0.0253 0,0.0377 -0.003,0.0127 -0.01,0.0247 -0.0127,0.0377 -10e-4,0.008 0,0.0168 0,0.0251 0,0.0209 0,0.0419 0,0.0628 0,0.004 -10e-4,0.008 0,0.0127 0.003,0.006 0.01,0.007 0.0127,0.0127 10e-4,0.004 0,0.008 0,0.0127 0,0.004 0.003,0.01 0,0.0127 -0.003,0.003 -0.01,-0.003 -0.0127,0 -0.003,0.003 0.003,0.01 0,0.0127 -0.003,0.003 -0.01,-0.003 -0.0127,0 -0.003,0.003 0.003,0.01 0,0.0127 -0.003,0.003 -0.008,-0.001 -0.0127,0 -0.006,0.003 -0.0176,0.01 -0.0127,0.0127 0.022,0.0141 0.0489,0.0171 0.0735,0.0255"
       id="path5155"
       inkscape:connector-curvature="0" />
    <path
       style="fill:none;stroke:#000000;stroke-width:0.37328202px;stroke-linecap:butt;stroke-linejoin:miter;stroke-opacity:1"
       d="m 141.33516,236.99065 c -0.0631,-0.021 -0.12966,-0.0334 -0.18906,-0.0632 -0.0113,-0.006 -0.008,-0.0251 -0.0127,-0.0377 -0.004,-0.0127 -0.008,-0.025 -0.0127,-0.0377 -0.0257,-0.0897 0.004,-0.0186 -0.0502,-0.13827 -0.0155,-0.0341 -0.0336,-0.067 -0.0502,-0.10059 -0.008,-0.0168 -0.0185,-0.0327 -0.0251,-0.0502 -0.006,-0.0161 -0.007,-0.0339 -0.0127,-0.0502 -0.0332,-0.0993 0.006,0.0251 -0.0251,-0.0377 -0.001,-0.004 5e-5,-0.008 8e-5,-0.0127"
       id="path5157"
       inkscape:connector-curvature="0" />
    <path
       style="opacity:0.98000004;fill:#808080;fill-opacity:1;stroke:#828282;stroke-width:0.09752873;stroke-miterlimit:4;stroke-dasharray:none;stroke-opacity:1"
       d="m 138.97835,256.01975 c -3.66371,-2.50967 -6.65141,-4.57289 -6.63935,-4.58497 0.0127,-0.0127 0.31329,0.1044 0.6694,0.25889 2.81004,1.21879 6.04097,1.45792 9.12737,0.67556 3.82674,-0.97003 7.17284,-3.69311 8.90904,-7.25023 2.4821,-5.08533 1.54273,-11.14761 -2.36338,-15.25226 -0.3314,-0.34825 -0.58644,-0.63319 -0.56676,-0.63319 0.0196,0 2.99031,2.02401 6.60137,4.4978 l 6.56558,4.49781 -0.01,1.42016 c -0.0295,4.23943 -1.31897,8.31395 -3.80156,12.01208 -0.92653,1.38019 -1.45057,2.00575 -2.82864,3.37664 -2.05445,2.04373 -3.90309,3.3524 -6.41942,4.5444 -0.76939,0.36446 -2.37596,1.00034 -2.52738,1.00034 -0.0303,0 -3.0527,-2.05336 -6.7164,-4.56303 z"
       id="path5237"
       inkscape:connector-curvature="0" />
  </g>
</svg>
